<svg width="139" height="50" viewBox="0 0 139 50" fill="none" xmlns="http://www.w3.org/2000/svg">
<path d="M21.9951 39.6173C27.875 39.6173 32.6602 34.815 32.6602 28.9141C32.6602 23.0131 27.875 18.2108 21.9951 18.2108C16.1152 18.2108 11.3301 23.0131 11.3301 28.9141C11.3301 34.815 16.1152 39.6173 21.9951 39.6173ZM21.9951 23.9689C24.7119 23.9689 26.9226 26.1876 26.9226 28.9141C26.9226 31.6406 24.7119 33.8592 21.9951 33.8592C19.2784 33.8592 17.0657 31.6406 17.0657 28.9141C17.0657 26.1876 19.2764 23.9689 21.9951 23.9689Z" fill="#181B1A"/>
<path d="M43.9916 49.72V17.6025L21.9208 0L0 17.6025V49.72H43.9916ZM22.0689 6.9881L38.5331 20.3232V44.2438H5.45854V20.3271L22.0689 6.9881Z" fill="#181B1A"/>
<path d="M56.6615 17.3613C61.1465 17.3613 64.327 20.5628 64.327 24.9075C64.327 29.2521 61.1465 32.4536 56.6615 32.4536C52.1766 32.4536 48.9961 29.2521 48.9961 24.9075C48.9961 20.5628 52.1766 17.3613 56.6615 17.3613ZM56.6615 28.6709C58.7741 28.6709 60.2345 27.1319 60.2345 24.9075C60.2345 22.683 58.7741 21.1441 56.6615 21.1441C54.5489 21.1441 53.0886 22.683 53.0886 24.9075C53.0886 27.1319 54.5489 28.6709 56.6615 28.6709Z" fill="#181B1A"/>
<path d="M65.6719 32.1852V17.6316H72.1348C75.8232 17.6316 77.7588 19.5452 77.7588 22.4763C77.7588 24.722 76.4639 26.3228 74.0203 26.8422L77.957 32.1852H73.3161L69.8259 27.0199H69.6085V32.1852H65.6719ZM69.6085 23.7662H72.0944C73.0679 23.7662 73.7837 23.3607 73.7837 22.4763C73.7837 21.592 73.0699 21.1768 72.0944 21.1768H69.6085V23.7643V23.7662Z" fill="#181B1A"/>
<path d="M85.0513 17.6316L87.9624 26.3846L90.862 17.6316H96.3205V32.1852H92.3839V23.0691L90.0539 30.8335H85.8594L83.5294 23.0691V32.1852H79.5928V17.6316H85.0513Z" fill="#181B1A"/>
<path d="M98.3291 17.6316H109.66V21.1459H102.264V23.0691H109.142V26.5835H102.264V28.6728H109.66V32.1871H98.3291V17.6335V17.6316Z" fill="#181B1A"/>
<path d="M110.643 32.1852L116.132 17.6316H120.773L126.262 32.1852H122.089L121.125 29.4104H115.718L114.754 32.1852H110.643ZM119.913 25.8864L118.422 21.5823L116.93 25.8864H119.913Z" fill="#181B1A"/>
<path d="M126.155 26.6178V18H130.102V26.5039C130.102 28.178 131.054 29.0412 132.578 29.0412C134.102 29.0412 135.054 28.178 135.054 26.5039V18H139V26.6178C139 30.5782 136.741 32.8239 132.578 32.8239C128.414 32.8239 126.155 30.5782 126.155 26.6178Z" fill="#181B1A"/>
<path d="M60.6896 46.0917V49.7296H49.7725V35.176H53.7091V46.0897H60.6896V46.0917Z" fill="#181B1A"/>
<path d="M61.8584 49.7296L67.3477 35.176H71.9885L77.4779 49.7296H73.3027L72.3387 46.9548H66.9321L65.9682 49.7296H61.8564H61.8584ZM71.1285 43.4308L69.6373 39.1267L68.1462 43.4308H71.1285Z" fill="#181B1A"/>
<path d="M78.6055 49.7296V35.176H85.1107C89.005 35.176 90.7347 36.7768 90.7347 39.3546C90.7347 40.7681 89.9478 41.8494 88.8087 42.4209C90.0728 42.8998 91.0252 44.126 91.0252 45.5491C91.0252 48.1269 89.3167 49.7277 85.484 49.7277H78.6055V49.7296ZM85.0164 40.8221C86.1035 40.8221 86.6538 40.4166 86.6538 39.6056C86.6538 38.7946 86.1054 38.4007 85.028 38.4007H82.5421V40.8221H85.0183H85.0164ZM85.2646 46.5088C86.394 46.5088 86.9732 46.0936 86.9732 45.271C86.9732 44.4484 86.394 44.0236 85.2646 44.0236H82.5402V46.5088H85.2646Z" fill="#181B1A"/>
<path d="M91.7471 48.1927L93.673 44.9699C94.8236 45.667 96.2109 46.4664 98.4178 46.4664C99.4741 46.4664 100.251 46.1748 100.251 45.4584C100.251 44.6996 99.3509 44.5547 97.5481 44.2632L96.9997 44.1705C93.7481 43.6086 92.3493 42.2164 92.3493 39.7525C92.3493 36.8618 94.6697 34.9193 98.2331 34.9193C100.128 34.9193 101.837 35.1163 104.355 36.4467L102.656 39.6791C101.704 39.1384 100.263 38.4626 98.4716 38.4626C97.4153 38.4626 96.6072 38.7542 96.6072 39.4088C96.6072 40.2294 98.0888 40.3125 99.5703 40.604L100.036 40.6967C103.03 41.2779 104.552 42.7242 104.552 44.9583C104.552 48.6387 101.454 50 98.3677 50C95.7683 50 93.4056 49.3763 91.749 48.1907L91.7471 48.1927Z" fill="#181B1A"/>
</svg>
