<?xml version="1.0" encoding="UTF-8"?>
<svg id="Layer_1" data-name="Layer 1" xmlns="http://www.w3.org/2000/svg" viewBox="0 0 1014.21 453.59">
  <defs>
    <style>
      .cls-1 {
        fill: #04cf61;
      }

      .cls-1, .cls-2 {
        stroke-width: 0px;
      }

      .cls-2 {
        fill: #fff;
      }
    </style>
  </defs>
  <g>
    <path class="cls-2" d="m13.96,248.94h66.81c33.61,0,58.56,7.61,58.56,39.75,0,13.74-6.13,24.52-18.18,31.92,14.38,5.07,24.31,15.86,24.31,34.46,0,34.46-24.73,47.14-61.94,47.14H13.96v-153.27Zm36.15,61.31h31.92c12.68,0,19.66-6.13,19.66-15.64s-6.98-15.22-19.66-15.22h-31.92v30.87Zm0,61.52h33.83c15.43,0,23.26-6.55,23.26-17.34s-7.82-17.34-23.26-17.34h-33.83v34.67Z"/>
    <path class="cls-2" d="m270.4,366.49c-10.15,26.85-34.04,38.48-56.66,38.48-37,0-62.37-22.41-62.37-60.25s27.7-59.62,60.89-59.62c37.84,0,60.89,28.54,58.56,69.13h-84.35c1.06,16.28,13.53,23.68,26.22,23.68,13.32,0,21.56-4.65,25.58-11.42h32.13Zm-83.51-33.4h49.26c-.63-14.38-10.57-21.35-23.89-21.35-12.47,0-23.47,6.34-25.37,21.35Z"/>
    <path class="cls-2" d="m318.81,402.22h-34.88v-153.27h34.88v153.27Z"/>
    <path class="cls-2" d="m341.86,281.29c0-26.85,11.84-32.35,42.28-32.35h17.76v24.52h-9.94c-12.47,0-15.22.63-15.22,9.3v5.71h25.16v24.73h-25.16v89h-34.88v-89h-15.43v-24.73h15.43v-7.19Z"/>
    <path class="cls-2" d="m477.16,326.74c0-13.53-6.55-18.18-19.24-18.18-11.21,0-18.82,5.71-20.3,16.7h-32.56c1.69-21.35,21.99-40.38,55.81-40.38s51.37,13.32,50.74,47.78l-.42,24.73v11.84c0,12.47.85,26,2.54,32.98h-34.25l-.42-13.74c-8.46,12.05-21.99,16.49-38.26,16.49-21.56,0-39.32-12.68-39.32-33.4,0-27.91,31.5-37,75.68-40.38v-4.44Zm.85,24.95c-24.31,2.33-40.59,4.86-40.59,17.34,0,7.4,6.98,12.26,16.07,12.26,13.95,0,24.52-5.92,24.52-26.85v-2.75Z"/>
    <path class="cls-2" d="m598.51,321.88c-2.33-8.46-11.21-10.99-22.2-10.99-12.05,0-18.18,2.75-18.18,8.46,0,5.29,4.02,8.25,13.95,10.15l21.14,3.81c27.27,5.07,40.38,13.11,40.38,33.19,0,25.58-23.47,38.48-54.97,38.48s-51.79-12.9-55.81-39.75h32.35c3.17,10.99,11.84,14.38,23.89,14.38s21.14-3.38,21.14-10.15c0-5.07-4.44-8.25-17.76-10.57l-20.29-3.38c-21.99-3.59-37-14.59-37-34.88,0-22.62,23.89-35.09,52.01-35.09,26,0,49.47,10.36,53.91,36.36h-32.56Z"/>
    <path class="cls-2" d="m652.84,257.4h34.88v31.08h24.95v24.73h-24.95v50.95c0,10.78,3.38,12.9,15.01,12.9h9.94v25.16h-22.2c-28.12,0-37.63-5.5-37.63-31.92v-57.08h-17.97v-24.73h17.97v-31.08Z"/>
  </g>
  <path class="cls-2" d="m17.83,38.5h34.61v30.83h24.8v24.54h-24.8v50.55c0,10.7,3.35,12.79,14.88,12.79h9.86v24.96h-22.03c-27.9,0-37.32-5.46-37.32-31.67v-56.62H0v-24.54h17.83v-30.83Z"/>
  <path class="cls-2" d="m136.54,65.98c-32.98,0-60.45,23.07-60.45,59.14s25.16,59.76,61.86,59.76c22.49,0,46.18-11.53,56.25-38.16h-31.9c-3.98,6.67-12.15,11.32-25.37,11.32s-24.95-7.33-25.99-23.48h83.7c2.35-40.27-20.56-68.58-58.1-68.58Zm-25.17,47.6c1.88-14.89,12.79-21.19,25.16-21.19,13.22,0,23.06,6.93,23.7,21.19h-48.86Z"/>
  <path class="cls-2" d="m313.32,110.72h-32.3c-3.1-13.22-11.32-17.84-21.59-17.84-12.4,0-24.54,8.4-24.54,32.55s12.17,32.71,24.54,32.71,20.55-6.71,23.06-17.41h32.3c-7.77,33.54-34.81,44.16-57.49,44.16-37.2,0-57.68-23.9-57.68-59.77s23.58-59.13,57.68-59.13c23.51,0,49.31,10.63,56.02,44.73Z"/>
  <path class="cls-2" d="m353.4,84.23c5.02-8.39,17.19-17.41,35.01-17.41,28.94,0,37.96,17.05,37.96,47.6v67.74h-34.61v-59.13c0-16.15-.43-29.36-17.21-29.36-14.96,0-21.16,9.64-21.16,30.61v57.88h-34.63V30.12h34.63v54.11Z"/>
  <path class="cls-2" d="m505.85,102.47c-2.31-8.39-11.11-10.85-22.03-10.85-11.95,0-18.03,2.73-18.03,8.39,0,5.25,3.98,8.18,13.84,10.08l21.02,3.74c27.05,5.04,40.05,13,40.05,32.94,0,25.37-23.25,38.16-54.53,38.16s-51.38-12.79-55.37-39.43h32.09c3.1,10.85,11.75,14.26,23.7,14.26s20.97-3.35,20.97-10.06c0-5.04-4.4-8.18-17.61-10.48l-20.15-3.36c-21.86-3.6-36.74-14.51-36.74-34.63,0-22.44,23.7-34.81,51.58-34.81,25.81,0,49.07,10.28,53.49,36.07h-32.3Z"/>
  <path class="cls-2" d="m558.69,38.5h34.61v30.83h24.8v24.54h-24.8v50.55c0,10.7,3.35,12.79,14.9,12.79h9.84v24.96h-22.01c-27.9,0-37.34-5.46-37.34-31.67v-56.62h-17.83v-24.54h17.83v-30.83Z"/>
  <path class="cls-2" d="m730.67,149.47v-11.77l.41-24.53c.64-34.2-17.77-47.4-50.32-47.4s-53.7,18.87-55.37,40.05h32.29c1.47-10.9,9.02-16.57,20.15-16.57,12.57,0,19.08,4.62,19.08,18.04v4.42c-43.84,3.36-75.09,12.37-75.09,40.05,0,20.55,17.63,33.14,39.02,33.14,16.13,0,29.56-4.4,37.96-16.35l.42,13.62h33.97c-1.69-6.91-2.52-20.3-2.52-32.7Zm-32.96-14.65c0,20.77-10.49,26.64-24.32,26.64-9.02,0-15.95-4.83-15.95-12.16,0-12.37,16.19-14.9,40.3-17.21l-.03,2.73Z"/>
  <path class="cls-2" d="m809.95,102.47c-3.12-.5-6.28-.71-9.44-.64-16.79,0-25.37,6.09-25.37,23.7v56.62h-34.61v-112.83h33.34v21.39c5.25-13.42,14.69-21.59,30.83-22.23h2.53c.91-.04,1.83.03,2.73.2v33.77Z"/>
  <path class="cls-2" d="m886.49,102.47c-2.31-8.39-11.11-10.85-22.03-10.85-11.95,0-18.03,2.73-18.03,8.39,0,5.25,3.98,8.18,13.84,10.08l20.97,3.74c27.05,5.04,40.05,13,40.05,32.94,0,25.37-23.25,38.16-54.53,38.16s-51.38-12.79-55.37-39.43h32.09c3.1,10.85,11.75,14.26,23.7,14.26s20.97-3.35,20.97-10.06c0-5.04-4.4-8.18-17.61-10.48l-20.15-3.36c-21.79-3.6-36.64-14.51-36.64-34.63,0-22.44,23.7-34.81,51.6-34.81,25.79,0,49.07,10.28,53.48,36.07h-32.35Z"/>
  <path class="cls-1" d="m920.88,211.32v-29.16h93.33v29.16h-93.33Z"/>
</svg>