<?xml version="1.0" encoding="UTF-8"?>
<svg width="100pt" height="100pt" version="1.1" viewBox="0 0 100 100" xmlns="http://www.w3.org/2000/svg">
 <path d="m56.758 45.98c-0.6875 0-1.375 0.003906-2.0664 0.027343-6.082 0.19922-16.465 0.25391-22.547 0.26563-8.6641 0.15234-13.051 0.27734-21.703 0.47656-0.41797 0.003906-1.4648 0.58203-1.9102 1.1641-0.57812 0.74609-0.37109 0.58203-0.25391 1.3867 0.1875 1.2617 1.1289 1.2539 2.5625 1.6445 1.957 0.53125 4.4727-0.34375 6.4336-0.49609 2.9219-0.22656 5.832 0.70703 8.7461 0.44141 2.8164-0.25391 5.6406 0.35938 8.4648 0.16406 9.5352-0.64453 19.207-0.89844 28.664-1.1445 4.2266-0.11719 5.0352-0.35156 9.2656-0.46875 0.56641-0.019531 3.2422-0.019531 3.8125-0.035156-3.0195 0.875-7.3242 1.3672-10.238 2.9844-0.0625 0.03125-0.51562 0.60156-0.21484 0.8125 2.4414 1.6719 6.707 0.46484 9.1211-0.25391 5.3906-1.5664 9.3047-1.875 15.395-2.6094 0.80469-0.09375 1.6836-0.88672 1.4805-1.5-0.27344-0.83984-0.80469-1.4492-1.7422-1.6484-1.0547-0.23438-2.6641 0.14844-3.3906-0.09375-1.7305-0.57422-7.2656-0.050781-9.0586-0.070312-2.4453-0.023438-3.8711 0.0625-6.3203-0.12109-4.8047-0.375-9.6719-0.91797-14.5-0.92578z" fill="#00d169"/>
</svg>
